# xmcd
#
# Track frame offsets: 
#        150
#        18756
#        49359
#        64608
#        82131
#        99155
#        117332
#        135760
#
# Disc length: 2085 seconds
#
# Revision: 0
# Processed by: cddbd v1.5.2PL0 Copyright (c) Steve Scherf et al.
# Submitted via: ExactAudioCopy v1.3
#
DISCID=5c082308
DTITLE=The California Honeydrops - Call It Home, vol. 1
DYEAR=2018
DGENRE=Blues
TTITLE0=Call It Home
TTITLE1=Coming Around
TTITLE2=Cry for Me
TTITLE3=Standin' Still Blues
TTITLE4=Hold It Down
TTITLE5=Your Sweet Love
TTITLE6=Those Days
TTITLE7=Live Learn
EXTD=
EXTT0=
EXTT1=
EXTT2=
EXTT3=
EXTT4=
EXTT5=
EXTT6=
EXTT7=
PLAYORDER=
